<?xml version="1.0" encoding="utf-8"?>
<!-- Generator: Adobe Illustrator 24.0.0, SVG Export Plug-In . SVG Version: 6.00 Build 0)  -->
<svg version="1.1" id="Layer_1" xmlns="http://www.w3.org/2000/svg" xmlns:xlink="http://www.w3.org/1999/xlink" x="0px" y="0px"
	 viewBox="0 0 131 168" style="enable-background:new 0 0 131 168;" xml:space="preserve">
<style type="text/css">
	.st0{display:none;}
	.st1{display:inline;}
	.st2{fill:none;stroke:#FFFFFF;stroke-width:4;stroke-miterlimit:10;}
	.st3{fill:none;stroke:#FFFFFF;stroke-width:3;stroke-miterlimit:10;}
	.st4{fill:#FFFFFF;}
	.st5{font-family:'Cairo';}
	.st6{font-size:36px;}
	.st7{font-size:48px;}
</style>
<g id="Layer_3" class="st0">
	<g class="st1">
		<g>
			<path d="M-55.3-12.6c5.3,1.3,10.6,2.5,15.9,3.8c1.3,0.3,2.5,0.6,3.7,0.9c1.1,0.3,2.3,0.6,3,1.5c1.4,1.8,2,4.5,2.6,6.6
				c2.7,9.6,2.5,20,2.2,29.8c-0.2,5.1-0.8,10.2-3.8,14.5c-1.1,1.6,1.5,3.1,2.6,1.5c2.9-4,3.8-8.9,4.1-13.8
				c0.4-5.2,0.3-10.5,0.1-15.7c-0.2-5.5-0.7-11-2-16.3c-0.6-2.5-1.4-5.1-2.6-7.4c-1.2-2.2-3.1-3.1-5.5-3.7c-6.5-1.6-13-3.2-19.5-4.7
				C-56.4-16-57.2-13.1-55.3-12.6L-55.3-12.6z"/>
		</g>
	</g>
	<g class="st1">
		<g>
			<path d="M53.7,195.9c20.6,0.8,39.9-3.5,57.8-12.9c18.6-6.1,34.7-16.4,48.3-31c14.6-13.6,25-29.7,31-48.3
				c9.4-17.9,13.7-37.1,12.9-57.8c-1.8-13.3-3.6-26.6-5.4-39.9c-7.1-25.4-20-47.5-38.6-66.2c-10.1-7.8-20.2-15.6-30.4-23.5
				c-23.4-13.6-48.6-20.4-75.7-20.5c-20.7-0.8-39.9,3.5-57.8,12.9c-18.6,6.1-34.7,16.4-48.3,31c-14.6,13.6-25,29.7-31,48.3
				c-9.4,17.9-13.7,37.1-12.9,57.8c1.8,13.3,3.6,26.6,5.4,39.9c7.1,25.4,20,47.5,38.6,66.2c10.1,7.8,20.2,15.6,30.4,23.4
				C1.4,188.9,26.6,195.8,53.7,195.9L53.7,195.9z"/>
		</g>
	</g>
</g>
<g id="Layer_2_1_">
	<g>
		<rect x="18.5" y="2" class="st2" width="106" height="106"/>
		<line class="st3" x1="95.5" y1="31" x2="47.5" y2="79"/>
		<polygon class="st4" points="49.5,17.1 52.8,25.3 61.2,22.7 56.8,30.3 64.1,35.3 55.4,36.7 56,45.5 49.5,39.5 43.1,45.5 
			43.7,36.7 35,35.3 42.3,30.3 37.9,22.7 46.3,25.3 		"/>
		<text transform="matrix(1 0 0 1 83.6756 86.5068)" class="st4 st5 st6">b</text>
	</g>
	<text transform="matrix(1 0 0 1 9.0002 158.04)" class="st4 st5 st7">b r a g</text>
</g>
</svg>
