<?xml version="1.0" encoding="utf-8"?>
<!-- Generator: Adobe Illustrator 24.0.0, SVG Export Plug-In . SVG Version: 6.00 Build 0)  -->
<svg version="1.1" xmlns="http://www.w3.org/2000/svg" xmlns:xlink="http://www.w3.org/1999/xlink" x="0px" y="0px"
	 viewBox="0 0 131 168" style="enable-background:new 0 0 131 168;" xml:space="preserve">
<style type="text/css">
	.st0{display:none;}
	.st1{display:inline;}
	.st2{fill:none;stroke:#FFFFFF;stroke-width:4;stroke-miterlimit:10;}
	.st3{fill:none;stroke:#FFFFFF;stroke-width:3;stroke-miterlimit:10;}
	.st4{fill:#FFFFFF;}
	.st5{font-family:'Cairo-SemiBold';}
	.st6{font-size:36px;}
	.st7{font-size:48px;}
	.st8{letter-spacing:14;}
</style>
<g id="Layer_3" class="st0">
	<g class="st1">
		<g>
			<path d="M-55.29-12.64c5.31,1.26,10.61,2.54,15.9,3.85c1.25,0.31,2.5,0.61,3.74,0.93c1.09,0.28,2.27,0.56,3,1.49
				c1.39,1.76,2.01,4.48,2.61,6.6c2.68,9.57,2.5,19.96,2.16,29.81c-0.18,5.07-0.84,10.24-3.84,14.48c-1.12,1.58,1.48,3.08,2.59,1.51
				c2.85-4.02,3.81-8.92,4.14-13.75c0.35-5.2,0.29-10.48,0.13-15.68c-0.17-5.47-0.67-10.99-2.05-16.31
				c-0.65-2.49-1.44-5.09-2.64-7.38c-1.17-2.22-3.15-3.13-5.48-3.72c-6.47-1.64-12.96-3.2-19.46-4.74
				C-56.37-15.97-57.17-13.08-55.29-12.64L-55.29-12.64z"/>
		</g>
	</g>
	<g class="st1">
		<g>
			<path d="M53.7,195.86c20.65,0.78,39.92-3.53,57.79-12.92c18.6-6.05,34.69-16.39,48.27-31.02c14.63-13.59,24.97-29.68,31.02-48.27
				c9.39-17.88,13.7-37.14,12.92-57.79c-1.79-13.29-3.57-26.58-5.36-39.88c-7.13-25.41-19.99-47.47-38.58-66.19
				c-10.12-7.82-20.24-15.64-30.36-23.45c-23.4-13.57-48.63-20.4-75.71-20.48c-20.65-0.78-39.92,3.53-57.79,12.92
				c-18.6,6.05-34.69,16.39-48.27,31.02C-67-46.62-77.34-30.52-83.39-11.93c-9.39,17.88-13.7,37.14-12.92,57.79
				c1.79,13.29,3.57,26.58,5.36,39.88c7.13,25.41,19.99,47.47,38.58,66.19c10.12,7.82,20.24,15.64,30.36,23.45
				C1.38,188.95,26.62,195.78,53.7,195.86L53.7,195.86z"/>
		</g>
	</g>
</g>
<g id="Layer_2">
	<g>
		<rect x="18.54" y="2" class="st2" width="106" height="106"/>
		<line class="st3" x1="95.54" y1="31" x2="47.54" y2="79"/>
		<polygon class="st4" points="49.54,17.06 52.78,25.27 61.22,22.69 56.82,30.34 64.1,35.32 55.38,36.66 56.02,45.46 49.54,39.47 
			43.06,45.46 43.7,36.66 34.97,35.32 42.26,30.34 37.86,22.69 46.3,25.27 		"/>
		<text transform="matrix(1 0 0 1 83.6756 86.5068)" class="st4 st5 st6">b</text>
	</g>
	<text transform="matrix(1 0 0 1 -3.1019 157.04)" class="st4 st5 st7 st8">brag</text>
</g>
</svg>
